<?xml version="1.0" encoding="UTF-8"?><svg id="Calque_2" xmlns="http://www.w3.org/2000/svg" xmlns:xlink="http://www.w3.org/1999/xlink" viewBox="0 0 421.56 117.65"><defs><style>.cls-1{fill:#0f0f55;}.cls-2{fill:url(#Dégradé_sans_nom_13);}.cls-3{fill:url(#Dégradé_sans_nom_14);}.cls-4{fill:url(#Dégradé_sans_nom_13-5);}.cls-5{fill:url(#Dégradé_sans_nom_13-7);}.cls-6{fill:url(#Dégradé_sans_nom_13-6);}.cls-7{fill:url(#Dégradé_sans_nom_13-4);}.cls-8{fill:url(#Dégradé_sans_nom_13-3);}.cls-9{fill:url(#Dégradé_sans_nom_13-2);}</style><linearGradient id="Dégradé_sans_nom_13" x1="24.48" y1="143.34" x2="24.48" y2="38.37" gradientUnits="userSpaceOnUse"><stop offset="0" stop-color="#004493"/><stop offset=".5" stop-color="#0d29f8"/><stop offset="1" stop-color="#00b7f1"/></linearGradient><linearGradient id="Dégradé_sans_nom_14" x1="24.48" y1="143.34" x2="24.48" y2="38.37" gradientUnits="userSpaceOnUse"><stop offset="0" stop-color="#004493"/><stop offset=".04" stop-color="#01429b"/><stop offset=".5" stop-color="#0d29f8"/><stop offset="1" stop-color="#00b7f1"/></linearGradient><linearGradient id="Dégradé_sans_nom_13-2" x1="92.92" y1="143.34" x2="92.92" y2="38.37" xlink:href="#Dégradé_sans_nom_13"/><linearGradient id="Dégradé_sans_nom_13-3" x1="58.83" y1="138.85" x2="58.83" y2="33.88" xlink:href="#Dégradé_sans_nom_13"/><linearGradient id="Dégradé_sans_nom_13-4" x1="113.11" y1="122.4" x2="113.11" y2="17.43" xlink:href="#Dégradé_sans_nom_13"/><linearGradient id="Dégradé_sans_nom_13-5" x1="58.83" y1="147.83" x2="58.83" y2="42.86" xlink:href="#Dégradé_sans_nom_13"/><linearGradient id="Dégradé_sans_nom_13-6" x1="3.53" y1="122.26" x2="3.53" y2="17.29" xlink:href="#Dégradé_sans_nom_13"/><linearGradient id="Dégradé_sans_nom_13-7" x1="65.51" y1="143.34" x2="65.51" y2="38.37" xlink:href="#Dégradé_sans_nom_13"/></defs><g id="Calque_1-2"><g><g><path class="cls-1" d="M144.09,59.3c0-16.17,12.01-28.41,28.42-28.41,13.11,0,23.31,8.08,26.53,19.78h-12.01c-2.59-5.65-7.85-9.11-14.6-9.11-10.12,0-17.03,7.46-17.03,17.74s6.91,17.74,17.03,17.74c6.75,0,12.01-3.45,14.6-9.11h12.01c-3.22,11.7-13.42,19.78-26.53,19.78-16.41,0-28.42-12.25-28.42-28.41Z"/><path class="cls-1" d="M252.14,59.3c0,13.03-9.89,22.53-22.53,22.53s-22.45-9.58-22.45-22.53,10.05-22.53,22.45-22.53,22.53,9.5,22.53,22.53Zm-33.67,0c0,7.14,4.87,11.85,11.15,11.85s11.15-4.71,11.15-11.85-4.87-11.85-11.15-11.85-11.15,4.79-11.15,11.85Z"/><path class="cls-1" d="M291.74,73.82h-22.21l-4.71,12.95h-11.85l20.57-54.95h14.21l20.57,54.95h-11.93l-4.63-12.95Zm-3.92-10.68l-7.22-19.94-7.22,19.94h14.44Z"/><path class="cls-1" d="M333.89,66.99h-6.2v19.78h-11.22V31.82h23.63c11.77,0,18.76,6.99,18.76,17.9,0,8.95-4.63,14.44-12.32,16.41l15.39,20.64h-13.82l-14.21-19.78Zm-6.2-9.81h11.15c5.89,0,8.63-2.83,8.63-7.3s-2.83-7.38-8.63-7.38h-11.15v14.68Z"/><path class="cls-1" d="M405,73.82h-22.21l-4.71,12.95h-11.85l20.57-54.95h14.21l20.57,54.95h-11.93l-4.63-12.95Zm-3.92-10.68l-7.22-19.94-7.22,19.94h14.44Z"/></g><g><path class="cls-2" d="M26.77,32c.69,.69,1.59,1.03,2.5,1.03s1.81-.34,2.5-1.03c1.38-1.38,1.38-3.61,0-4.99l-9.58-9.58c-1.38-1.38-3.61-1.38-4.99,0s-1.38,3.61,0,4.99l9.58,9.58Z"/><path class="cls-3" d="M26.77,85.87l-9.58,9.58c-1.38,1.38-1.38,3.61,0,4.99,.69,.69,1.59,1.03,2.5,1.03s1.81-.34,2.5-1.03l9.58-9.58c1.38-1.38,1.38-3.61,0-4.99-1.38-1.38-3.61-1.38-4.99,0Z"/><path class="cls-9" d="M88.13,33.04c.9,0,1.81-.34,2.5-1.03l9.58-9.58c1.38-1.38,1.38-3.61,0-4.99-1.38-1.38-3.61-1.38-4.99,0l-9.58,9.58c-1.38,1.38-1.38,3.61,0,4.99,.69,.69,1.59,1.03,2.5,1.03Z"/><path class="cls-8" d="M61.33,6.03c1.38-1.38,1.38-3.61,0-4.99-1.38-1.38-3.61-1.38-4.99,0-1.38,1.38-1.38,3.61,0,4.99,1.38,1.38,3.61,1.38,4.99,0Z"/><path class="cls-7" d="M110.61,56.58c-1.38,1.38-1.38,3.61,0,4.99,1.38,1.38,3.61,1.38,4.99,0,1.38-1.38,1.38-3.61,0-4.99-1.38-1.38-3.61-1.38-4.99,0Z"/><path class="cls-4" d="M56.34,111.62c-1.38,1.38-1.38,3.61,0,4.99,1.38,1.38,3.61,1.38,4.99,0,1.38-1.38,1.38-3.61,0-4.99-1.38-1.38-3.61-1.38-4.99,0Z"/><path class="cls-6" d="M1.03,56.44c-1.38,1.38-1.38,3.61,0,4.99s3.61,1.38,4.99,0c1.38-1.38,1.38-3.61,0-4.99-1.38-1.38-3.61-1.38-4.99,0Z"/><path class="cls-5" d="M81.47,76.72c3.84-4.91,6.13-11.08,6.13-17.78,0-15.94-12.97-28.91-28.91-28.91s-28.91,12.97-28.91,28.91,12.97,28.91,28.91,28.91c6.7,0,12.87-2.29,17.78-6.13l18.73,18.73c.69,.69,1.59,1.03,2.5,1.03s1.81-.34,2.5-1.03c1.38-1.38,1.38-3.61,0-4.99l-18.73-18.73Zm-22.78,4.06c-12.05,0-21.85-9.8-21.85-21.85s9.8-21.85,21.85-21.85,21.85,9.8,21.85,21.85-9.8,21.85-21.85,21.85Z"/></g></g></g></svg>